<svg width="287" height="68" viewBox="0 0 287 68" fill="none" xmlns="http://www.w3.org/2000/svg">
<path d="M62.3999 25L65.7999 21.9H68.6999L69.8999 12.2L73.7999 8.2H82.7999L81.0999 21.9H94.5999L93.6999 28.5L90.2999 31.7H79.8999L77.3999 52.3C76.9333 56.2333 77.9333 58.2 80.3999 58.2C81.4666 58.2 82.4999 57.7333 83.4999 56.8C84.5666 55.8 85.5333 53.5667 86.3999 50.1L95.0999 53C93.8333 58.2 91.9666 62 89.4999 64.4C87.0333 66.8 83.5666 68 79.0999 68C74.2999 68 70.5666 66.7667 67.8999 64.3C65.2999 61.7667 64.2666 58.1667 64.7999 53.5L67.4999 31.7H61.4999L62.3999 25Z" fill="#333333"/>
<path d="M107.135 13.9L108.535 0.5H120.535L119.135 13.9H107.135ZM99.2351 24.6L102.335 21.9H118.235L113.935 57.2H119.635L118.735 64.5L115.735 67H100.335L104.635 31.7H98.3351L99.2351 24.6Z" fill="#333333"/>
<path d="M129.577 21.9H143.477L143.877 30.6C145.41 27.7333 147.377 25.4333 149.777 23.7C152.177 21.9 155.077 21 158.477 21C161.743 21 164.476 21.8333 166.676 23.5C168.876 25.1 170.21 27.6 170.677 31C172.21 28.0667 174.177 25.6667 176.577 23.8C179.043 21.9333 182.01 21 185.477 21C189.543 21 192.743 22.2667 195.077 24.8C197.477 27.3333 198.343 31.2667 197.677 36.6L195.176 57.2H200.977L200.077 64.5L197.077 67H181.676L184.777 41.6C185.243 37.7333 185.01 34.9667 184.077 33.3C183.143 31.6333 181.443 30.8 178.977 30.8C175.977 30.8 173.843 31.8 172.577 33.8C171.31 35.8 170.477 38.3667 170.077 41.5L166.977 67H154.676L157.777 41.6C158.243 37.7333 158.01 34.9667 157.077 33.3C156.143 31.6333 154.443 30.8 151.977 30.8C148.977 30.8 146.843 31.8 145.577 33.8C144.31 35.8 143.477 38.3667 143.077 41.5L139.977 67H127.577L131.877 31.7H125.577L126.477 24.6L129.577 21.9Z" fill="#333333"/>
<path d="M224.45 58.2C227.85 58.2 230.05 57.2667 231.05 55.4C232.05 53.4667 232.717 51.9333 233.05 50.8L243.15 52.8C242.483 56.7333 240.35 60.2667 236.75 63.4C233.217 66.4667 228.483 68 222.55 68C217.217 68 212.65 66.4 208.85 63.2C205.05 60 203.15 54.8667 203.15 47.8C203.15 40.6 205.283 34.3333 209.55 29C213.817 23.6667 219.817 21 227.55 21C232.35 21 236.283 22.1333 239.35 24.4C242.417 26.6667 243.95 29.6667 243.95 33.4C243.95 36.7333 242.783 39.6 240.45 42C238.117 44.3333 233.917 46.1333 227.85 47.4C224.383 48.1333 220.65 48.7 216.65 49.1C216.85 51.9667 217.517 54.2 218.65 55.8C219.783 57.4 221.717 58.2 224.45 58.2ZM221.35 40.9C225.35 40.1667 227.95 39.2 229.15 38C230.35 36.8 230.95 35.5333 230.95 34.2C230.95 32.5333 230.417 31.3667 229.35 30.7C228.283 30.0333 227.117 29.7 225.85 29.7C223.05 29.7 220.95 30.9333 219.55 33.4C218.217 35.8 217.35 38.5333 216.95 41.6C217.75 41.4667 218.517 41.3667 219.25 41.3C219.983 41.1667 220.683 41.0333 221.35 40.9Z" fill="#333333"/>
<path d="M265.484 58.2C267.617 58.2 269.35 57.8333 270.684 57.1C272.017 56.3667 272.684 55.3 272.684 53.9C272.684 51.9667 271.484 50.7 269.084 50.1C266.75 49.4333 264.15 48.7 261.284 47.9C258.35 47.1 255.65 45.8667 253.184 44.2C250.784 42.4667 249.584 39.5667 249.584 35.5C249.584 30.1667 251.65 26.4333 255.784 24.3C259.917 22.1 264.35 21 269.084 21C271.55 21 274.384 21.3 277.584 21.9C280.784 22.5 283.717 23.5667 286.384 25.1L286.284 36.6L276.384 37.7L276.184 32.1C273.717 31.2333 271.35 30.8 269.084 30.8C267.75 30.8 266.317 31.1 264.784 31.7C263.25 32.3 262.484 33.3333 262.484 34.8C262.484 36.2 263.35 37.1667 265.084 37.7C266.817 38.2333 269.117 38.8667 271.984 39.6C274.984 40.4 278.017 41.6667 281.084 43.4C284.15 45.1333 285.684 48.3667 285.684 53.1C285.684 58.2333 283.75 62 279.884 64.4C276.017 66.8 271.417 68 266.084 68C263.217 68 259.817 67.6667 255.884 67C251.95 66.2667 248.584 65.1333 245.784 63.6L248.884 51L258.584 52.1L258.084 57.3C259.217 57.7 260.55 57.9667 262.084 58.1C263.684 58.1667 264.817 58.2 265.484 58.2Z" fill="#333333"/>
<path d="M30.5999 32.36H22.8399L21.7999 40.04H29.5599L30.5999 32.36ZM49.7999 40.04V50.44H40.1999L38.0399 67H26.1199L28.2799 50.44H20.5199L18.3599 67H6.51994L8.75994 50.44H0.439941V40.04H10.0399L10.9999 32.36H2.83994V22.04H12.3599L14.3599 6.68H26.1199L24.1199 22.04H31.8799L33.9599 6.68H45.7999L43.7999 22.04H51.9599V32.36H42.5199L41.4799 40.04H49.7999Z" fill="#333333"/>
</svg>
