<svg width="400" height="92" viewBox="0 0 400 92" fill="none" xmlns="http://www.w3.org/2000/svg">
<path d="M105.586 13.5938V30.8203H121.992V43.2422H105.586V68.7891C105.586 71.4453 106.172 73.5547 107.344 75.1172C108.594 76.6016 110.43 77.3438 112.852 77.3438C114.961 77.3438 116.758 77.1094 118.242 76.6406C119.805 76.1719 121.25 75.5078 122.578 74.6484V86.4844C121.094 87.9688 119.219 89.2188 116.953 90.2344C114.766 91.25 111.992 91.7578 108.633 91.7578C103.32 91.7578 98.9844 90.0781 95.625 86.7188C92.3438 83.2812 90.7031 78.5938 90.7031 72.6562V43.2422H80.0391V35.625C83.7891 34.2969 87.2266 31.7969 90.3516 28.125C93.5547 24.4531 96.0938 19.6094 97.9688 13.5938H105.586Z" fill="#333333"/>
<path d="M152.634 0C155.447 0 157.869 1.01562 159.9 3.04688C161.931 5 162.947 7.34375 162.947 10.0781C162.947 12.7344 161.931 15.0781 159.9 17.1094C157.869 19.1406 155.447 20.1562 152.634 20.1562C149.822 20.1562 147.4 19.1406 145.369 17.1094C143.416 15.0781 142.439 12.7344 142.439 10.0781C142.439 7.34375 143.416 5 145.369 3.04688C147.4 1.01562 149.822 0 152.634 0ZM161.306 30.8203V90H146.423V43.4766H136.931V30.8203H161.306Z" fill="#333333"/>
<path d="M196.139 30.8203V38.3203C197.936 36.0547 200.084 33.9844 202.584 32.1094C205.163 30.2344 208.444 29.2969 212.428 29.2969C216.569 29.2969 220.319 30.2734 223.678 32.2266C227.038 34.1016 229.655 36.9531 231.53 40.7812C233.873 37.5781 236.608 34.8828 239.733 32.6953C242.858 30.4297 246.491 29.2969 250.631 29.2969C254.616 29.2969 258.248 30.2344 261.53 32.1094C264.811 33.9062 267.428 36.6016 269.381 40.1953C271.413 43.7891 272.428 48.2812 272.428 53.6719V90H257.545L257.428 55.6641C257.428 51.6797 256.373 48.7109 254.264 46.7578C252.233 44.8047 249.538 43.8281 246.178 43.8281C243.6 43.8281 241.373 44.6484 239.498 46.2891C237.623 47.8516 235.866 49.7266 234.225 51.9141V90H219.342L219.225 55.6641C219.225 51.6797 218.17 48.7109 216.061 46.7578C214.03 44.8047 211.373 43.8281 208.092 43.8281C205.592 43.8281 203.366 44.6094 201.413 46.1719C199.459 47.6562 197.702 49.4141 196.139 51.4453V90H181.256V30.8203H196.139Z" fill="#333333"/>
<path d="M315.319 29.2969C321.1 29.2969 326.061 30.5469 330.202 33.0469C334.42 35.5469 337.623 39.0234 339.811 43.4766C342.077 47.8516 343.209 52.9297 343.209 58.7109V65.0391H300.319C301.1 69.0234 303.053 72.2266 306.178 74.6484C309.303 77.0703 313.131 78.2812 317.663 78.2812C321.959 78.2812 325.866 77.4219 329.381 75.7031C332.897 73.9844 335.709 72.2266 337.819 70.4297L337.702 84.2578C335.827 85.8984 333.014 87.5781 329.264 89.2969C325.592 90.9375 321.53 91.7578 317.077 91.7578C311.217 91.7578 305.866 90.4297 301.022 87.7734C296.256 85.1172 292.428 81.4844 289.538 76.875C286.725 72.2656 285.319 66.9922 285.319 61.0547C285.319 55.2734 286.608 50 289.186 45.2344C291.764 40.4688 295.319 36.6406 299.85 33.75C304.381 30.7812 309.538 29.2969 315.319 29.2969ZM314.967 42.3047C311.295 42.3047 308.209 43.4375 305.709 45.7031C303.209 47.9688 301.491 51.0156 300.553 54.8438H328.913C328.6 50.625 327.038 47.5 324.225 45.4688C321.413 43.3594 318.327 42.3047 314.967 42.3047Z" fill="#333333"/>
<path d="M379.505 29.2969C383.177 29.2969 386.575 29.8438 389.7 30.9375C392.825 32.0312 395.247 33.2812 396.966 34.6875V47.8125C395.091 46.5625 392.786 45.3516 390.052 44.1797C387.395 43.0078 384.622 42.4219 381.731 42.4219C378.919 42.4219 376.692 43.0469 375.052 44.2969C373.411 45.5469 372.591 47.0312 372.591 48.75C372.591 50 373.059 51.1719 373.997 52.2656C374.934 53.2812 376.731 54.1797 379.388 54.9609L386.067 57.1875C395.052 59.8438 399.544 65.0391 399.544 72.7734C399.544 76.4453 398.489 79.7266 396.38 82.6172C394.348 85.4297 391.575 87.6562 388.059 89.2969C384.622 90.9375 380.794 91.7578 376.575 91.7578C372.591 91.7578 368.723 91.1328 364.973 89.8828C361.223 88.6328 358.372 87.2656 356.419 85.7812V72.7734C357.903 73.7891 359.7 74.7656 361.809 75.7031C363.919 76.6406 366.106 77.4219 368.372 78.0469C370.638 78.5938 372.708 78.8672 374.583 78.8672C377.552 78.8672 379.817 78.3594 381.38 77.3438C383.02 76.25 383.841 74.7266 383.841 72.7734C383.841 71.2891 383.177 70.1172 381.848 69.2578C380.52 68.3984 378.567 67.5391 375.989 66.6797L368.723 64.1016C364.192 62.6172 361.067 60.5078 359.348 57.7734C357.63 55.0391 356.77 51.7969 356.77 48.0469C356.77 44.2969 357.708 41.0547 359.583 38.3203C361.536 35.5078 364.231 33.3203 367.669 31.7578C371.106 30.1172 375.052 29.2969 379.505 29.2969Z" fill="#333333"/>
<path fill-rule="evenodd" clip-rule="evenodd" d="M56 31V13H41V31H26V13H11V31H0V43H11V64H0V76H11V90H26V76H41V90H56V76H67V64H56V43H67V31H56ZM41 64V43H26V64H41Z" fill="#333333"/>
</svg>
