<svg width="90" height="90" viewBox="0 0 90 90" fill="none" xmlns="http://www.w3.org/2000/svg">
<path d="M30.1216 85.9082H59.5161C62.6737 85.9082 65.2535 84.9641 67.2554 83.0761C69.2574 81.1881 70.2583 78.763 70.2583 75.8007V13.6426C70.2583 10.6803 69.2574 8.25516 67.2554 6.36716C65.2535 4.47916 62.6737 3.53516 59.5161 3.53516H30.1216C26.9966 3.53516 24.4332 4.47916 22.4312 6.36716C20.4292 8.25516 19.4282 10.6803 19.4282 13.6426V75.8007C19.4282 78.763 20.4292 81.1881 22.4312 83.0761C24.4332 84.9641 26.9966 85.9082 30.1216 85.9082ZM31.0493 78.8769C29.6171 78.8769 28.494 78.4944 27.6802 77.7294C26.8664 76.9645 26.4595 75.9147 26.4595 74.58V14.8633C26.4595 13.5286 26.8664 12.4788 27.6802 11.7139C28.494 10.9489 29.6171 10.5664 31.0493 10.5664H58.5884C60.0207 10.5664 61.1437 10.9489 61.9575 11.7139C62.7713 12.4788 63.1782 13.5286 63.1782 14.8633V74.58C63.1782 75.9147 62.7713 76.9645 61.9575 77.7294C61.1437 78.4944 60.0207 78.8769 58.5884 78.8769H31.0493Z" fill="#007AFF"/>
<path d="M33.1977 73.9453H36.8598C37.869 73.9453 38.3735 73.4733 38.3735 72.5293V68.7695C38.3735 67.8255 37.869 67.3535 36.8598 67.3535H33.1977C32.2537 67.3535 31.7817 67.8255 31.7817 68.7695V72.5293C31.7817 73.4733 32.2537 73.9453 33.1977 73.9453ZM33.1977 43.1836H36.8598C37.869 43.1836 38.3735 42.7116 38.3735 41.7676V38.0566C38.3735 37.0801 37.869 36.5918 36.8598 36.5918H33.1977C32.2537 36.5918 31.7817 37.0801 31.7817 38.0566V41.7676C31.7817 42.7116 32.2537 43.1836 33.1977 43.1836ZM42.9633 73.9453H46.6254C47.602 73.9453 48.0902 73.4733 48.0902 72.5293V68.7695C48.0902 67.8255 47.602 67.3535 46.6254 67.3535H42.9633C42.0193 67.3535 41.5473 67.8255 41.5473 68.7695V72.5293C41.5473 73.4733 42.0193 73.9453 42.9633 73.9453ZM33.1977 32.6367H36.8598C37.869 32.6367 38.3735 32.1647 38.3735 31.2207V27.5098C38.3735 26.5658 37.869 26.0938 36.8598 26.0938H33.1977C32.2537 26.0938 31.7817 26.5658 31.7817 27.5098V31.2207C31.7817 32.1647 32.2537 32.6367 33.1977 32.6367ZM52.7289 73.9453H56.3422C57.3514 73.9453 57.8559 73.4733 57.8559 72.5293V68.7695C57.8559 67.8255 57.3514 67.3535 56.3422 67.3535H52.7289C51.7849 67.3535 51.3129 67.8255 51.3129 68.7695V72.5293C51.3129 73.4733 51.7849 73.9453 52.7289 73.9453ZM42.9633 43.1836H46.6254C47.602 43.1836 48.0902 42.7116 48.0902 41.7676V38.0566C48.0902 37.0801 47.602 36.5918 46.6254 36.5918H42.9633C42.0193 36.5918 41.5473 37.0801 41.5473 38.0566V41.7676C41.5473 42.7116 42.0193 43.1836 42.9633 43.1836ZM33.1977 22.1387H36.8598C37.869 22.1387 38.3735 21.6667 38.3735 20.7227V17.0117C38.3735 16.0677 37.869 15.5957 36.8598 15.5957H33.1977C32.2537 15.5957 31.7817 16.0677 31.7817 17.0117V20.7227C31.7817 21.6667 32.2537 22.1387 33.1977 22.1387ZM42.9633 32.6367H46.6254C47.602 32.6367 48.0902 32.1647 48.0902 31.2207V27.5098C48.0902 26.5658 47.602 26.0938 46.6254 26.0938H42.9633C42.0193 26.0938 41.5473 26.5658 41.5473 27.5098V31.2207C41.5473 32.1647 42.0193 32.6367 42.9633 32.6367ZM52.7289 32.6367H56.3422C57.3514 32.6367 57.8559 32.1647 57.8559 31.2207V27.5098C57.8559 26.5658 57.3514 26.0938 56.3422 26.0938H52.7289C51.7849 26.0938 51.3129 26.5658 51.3129 27.5098V31.2207C51.3129 32.1647 51.7849 32.6367 52.7289 32.6367ZM42.9633 22.1387H46.6254C47.602 22.1387 48.0902 21.6667 48.0902 20.7227V17.0117C48.0902 16.0677 47.602 15.5957 46.6254 15.5957H42.9633C42.0193 15.5957 41.5473 16.0677 41.5473 17.0117V20.7227C41.5473 21.6667 42.0193 22.1387 42.9633 22.1387ZM52.7289 22.1387H56.3422C57.3514 22.1387 57.8559 21.6667 57.8559 20.7227V17.0117C57.8559 16.0677 57.3514 15.5957 56.3422 15.5957H52.7289C51.7849 15.5957 51.3129 16.0677 51.3129 17.0117V20.7227C51.3129 21.6667 51.7849 22.1387 52.7289 22.1387Z" fill="#007AFF"/>
</svg>
