<svg width="86" height="86" viewBox="0 0 86 86" fill="none" xmlns="http://www.w3.org/2000/svg">
<path d="M19.2143 79.123H66.4799C73.1857 79.123 76.5385 76.9909 76.5385 72.7265C76.5385 70.22 75.7736 67.5345 74.2436 64.6699C72.7137 61.8053 70.492 59.1116 67.5786 56.5889C64.6652 54.0661 61.1252 51.999 56.9585 50.3877C52.7919 48.7763 48.0881 47.9707 42.8471 47.9707C37.6063 47.9707 32.9106 48.7763 28.7602 50.3877C24.6098 51.999 21.0698 54.0661 18.1401 56.5889C15.2105 59.1116 12.9806 61.8053 11.4506 64.6699C9.92072 67.5345 9.15576 70.22 9.15576 72.7265C9.15576 76.9909 12.5086 79.123 19.2143 79.123ZM17.0171 72.5312C16.7567 72.5312 16.5532 72.4824 16.4067 72.3847C16.2603 72.2871 16.187 72.108 16.187 71.8476C16.187 70.4153 16.7648 68.7226 17.9204 66.7695C19.076 64.8163 20.785 62.912 23.0473 61.0566C25.3097 59.2011 28.0929 57.6549 31.3969 56.418C34.701 55.181 38.5177 54.5625 42.8471 54.5625C47.1766 54.5625 50.9933 55.181 54.2973 56.418C57.6014 57.6549 60.3846 59.2011 62.6469 61.0566C64.9093 62.912 66.6183 64.8163 67.7739 66.7695C68.9295 68.7226 69.5073 70.4153 69.5073 71.8476C69.5073 72.108 69.4422 72.2871 69.312 72.3847C69.1818 72.4824 68.9702 72.5312 68.6772 72.5312H17.0171ZM42.8471 43.4785C45.9071 43.4785 48.7147 42.6565 51.27 41.0127C53.8254 39.3688 55.8599 37.1715 57.3735 34.4209C58.8872 31.6702 59.644 28.6347 59.644 25.3145C59.644 21.9941 58.8953 18.9993 57.3979 16.3301C55.9005 13.6608 53.8823 11.5449 51.3432 9.98237C48.8042 8.4199 45.9721 7.63867 42.8471 7.63867C39.7873 7.63867 36.9797 8.43617 34.4243 10.0312C31.869 11.6262 29.8345 13.7665 28.3208 16.4521C26.8072 19.1377 26.0503 22.1243 26.0503 25.4121C26.0503 28.6999 26.8153 31.7191 28.3452 34.4697C29.8752 37.2203 31.9097 39.4095 34.4487 41.0371C36.9878 42.6647 39.7873 43.4785 42.8471 43.4785ZM42.8471 36.9355C41.1219 36.9355 39.5187 36.4228 38.0376 35.3975C36.5565 34.3721 35.3602 32.9886 34.4487 31.2471C33.5373 29.5055 33.0815 27.5605 33.0815 25.4121C33.0815 23.2637 33.5291 21.3512 34.4243 19.6748C35.3195 17.9984 36.5077 16.6719 37.9887 15.6953C39.4699 14.7187 41.0893 14.2305 42.8471 14.2305C44.6375 14.2305 46.2733 14.7106 47.7544 15.6709C49.2355 16.6311 50.4155 17.9495 51.2944 19.626C52.1734 21.3024 52.6128 23.1985 52.6128 25.3145C52.6128 27.4629 52.1652 29.416 51.27 31.1738C50.3748 32.9316 49.1867 34.3313 47.7055 35.373C46.2245 36.4146 44.605 36.9355 42.8471 36.9355Z" fill="#007AFF"/>
</svg>
